<?xml version="1.0" encoding="UTF-8"?>
<svg xmlns="http://www.w3.org/2000/svg" viewBox="0 0 87 75">
  <defs>
    <style>
      .cls-1 {
        fill: none;
        stroke-linecap: round;
        stroke-linejoin: round;
      }

      .cls-1, .cls-2 {
        stroke: #000;
      }

      .cls-2 {
        stroke-miterlimit: 10;
        stroke-width: .74px;
      }
    </style>
  </defs>
  <g id="_レイヤー_1" data-name="レイヤー 1">
    <g>
      <path class="cls-1" d="M8.85,48.46c5.85-6.41,11.71-12.82,17.56-19.23.05-.16.15-.1.12-.03l-15.63,37.53c-.52,1.24-1.23,2.38-2.1,3.4l-1.17,1.35c-.84.97-1.88,1.38-3.16,1.23-.04,0-.09-.01-.15-.03-.8-.17-1.43-.77-1.72-1.53-.45-1.21-.46-2.58-.27-3.82.41-1.18,1.52-2.78,1.78-3.08,8.97-8.57,20.55-15.1,26.72-25.78,1.09-1.88,2.07-3.88,3.39-5.68,1.65-2.26,3.71-3.89,5.89-5.58"/>
      <path class="cls-1" d="M31.72,36.93c-2.14,3.54-2.27,11.5,2.98,12.39,2.96.5,5.61-1.72,7.49-3.63,3.53-3.6,6.11-8.08,6.89-13.1.15-.95.23-1.93.03-2.87s-.72-1.85-1.56-2.33c-1.17-.68-2.74-.37-3.81.47s-1.71,2.1-2.16,3.39c-.78,2.23-1.06,4.64-.82,6.99.11,1.12.25,2.27.7,3.31.23.52.54,1.02.98,1.39.48.4,1.11.52,1.57.95l1.15.26c1.14.26,2.34.24,3.47-.08,2.91-.82,4.95-3.15,6.76-5.43,2.27-2.86,4.72-5.57,7.07-8.36,3.12-3.72,6.18-7.49,9.24-11.26,2.8-3.44,5.86-6.78,7.96-10.72.77-1.45,1.28-2.82.79-4.46-.45-1.51-1.64-2.36-2.97-1.64-1.43.77-2.31,2.75-3.11,4.1-2.67,4.46-4.86,9.31-6.89,14.09-.18.43-.37.87-.54,1.31-1.1,2.69-2.08,5.42-3.15,8.12-2.59,6.54-5.19,13.09-7.78,19.63-.1.26-.21.52-.31.78,1.87-3.13,3.74-6.27,5.61-9.4,1.62-2.71,3.33-5.44,5.34-7.92,1.79-2.21,4.28-5.51,7.38-5.65.7-.03,1.39.15,1.96.56,1.73,1.25,2.3,3.73,1.59,5.68-1.5,4.12-4.49,8.05-4.92,12.5-.1,1.06.02,2.96,1.2,3.44.73.3,1.56-.17,2.1-.74,2.85-3.02,5.91-5.88,8.89-8.79"/>
    </g>
  </g>
  <g id="_レイヤー_2" data-name="レイヤー 2">
    <circle class="cls-2" cx="30.33" cy="16.88" r="1.12"/>
  </g>
</svg>